<svg width="86" height="25" viewBox="0 0 86 25" fill="none" xmlns="http://www.w3.org/2000/svg">
<rect width="86" height="25" fill="white"/>
<g clip-path="url(#clip0)">
<path d="M17.8738 4C16.1187 4 14.4031 4.52784 12.9438 5.51677C11.4845 6.5057 10.3471 7.91132 9.67548 9.55584C9.00385 11.2004 8.82811 13.01 9.17051 14.7558C9.51291 16.5016 10.3581 18.1053 11.5991 19.364C12.8401 20.6226 14.4213 21.4799 16.1426 21.8271C17.864 22.1743 19.6482 21.9961 21.2697 21.315C22.8911 20.6337 24.277 19.4802 25.2521 18.0001C26.2271 16.5201 26.7476 14.78 26.7476 13C26.7476 10.613 25.8126 8.32387 24.1485 6.63604C22.4844 4.94821 20.2273 4 17.8738 4ZM17.8738 20.6154C16.3887 20.6154 14.937 20.1687 13.7023 19.332C12.4675 18.4952 11.5051 17.3058 10.9368 15.9143C10.3685 14.5227 10.2198 12.9916 10.5095 11.5143C10.7992 10.0371 11.5143 8.68013 12.5644 7.61511C13.6145 6.55008 14.9524 5.82478 16.4089 5.53094C17.8655 5.2371 19.3752 5.38791 20.7472 5.9643C22.1192 6.54069 23.2919 7.51678 24.117 8.76913C24.942 10.0215 25.3824 11.4938 25.3824 13C25.3824 15.0197 24.5913 16.9567 23.1832 18.3849C21.7751 19.8131 19.8652 20.6154 17.8738 20.6154Z" fill="#05051B"/>
<path d="M14.3172 12.82C14.3806 12.8849 14.4561 12.9364 14.5393 12.9715C14.6225 13.0067 14.7117 13.0248 14.8018 13.0248C14.892 13.0248 14.9812 13.0067 15.0644 12.9715C15.1475 12.9364 15.223 12.8849 15.2865 12.82L16.8906 11.1931C17.192 10.883 17.3758 10.4749 17.4096 10.0408C17.4434 9.60676 17.325 9.1745 17.0753 8.82029C16.8256 8.46606 16.4606 8.21261 16.0447 8.10463C15.6288 7.99665 15.1886 8.04104 14.8018 8.22999C14.4144 8.02938 13.9689 7.97648 13.5463 8.08091C13.1237 8.18536 12.7521 8.4402 12.4991 8.79908C12.2461 9.15795 12.1286 9.59702 12.1679 10.0364C12.2071 10.4757 12.4006 10.8862 12.7131 11.1931L14.3172 12.82ZM13.6756 9.53846C13.717 9.49448 13.7668 9.45947 13.8219 9.43555C13.877 9.41163 13.9364 9.3993 13.9964 9.3993C14.0563 9.3993 14.1157 9.41163 14.1708 9.43555C14.226 9.45947 14.2758 9.49448 14.3172 9.53846C14.3806 9.60334 14.4561 9.65485 14.5393 9.68999C14.6225 9.72515 14.7117 9.74324 14.8018 9.74324C14.892 9.74324 14.9812 9.72515 15.0644 9.68999C15.1475 9.65485 15.223 9.60334 15.2865 9.53846C15.3284 9.49534 15.3783 9.46111 15.4334 9.43772C15.4885 9.41436 15.5476 9.40233 15.6073 9.40233C15.667 9.40233 15.7261 9.41436 15.7812 9.43772C15.8363 9.46111 15.8862 9.49534 15.9281 9.53846C15.9715 9.58048 16.006 9.63098 16.0296 9.6869C16.0532 9.74283 16.0653 9.80302 16.0653 9.86384C16.0653 9.92467 16.0532 9.98486 16.0296 10.0408C16.006 10.0967 15.9715 10.1472 15.9281 10.1892L14.8018 11.3523L13.6756 10.2308C13.6322 10.1887 13.5977 10.1383 13.5741 10.0823C13.5505 10.0264 13.5383 9.9662 13.5383 9.90539C13.5383 9.84456 13.5505 9.78437 13.5741 9.72843C13.5977 9.67251 13.6322 9.62201 13.6756 9.57999V9.53846Z" fill="#05051B"/>
<path d="M20.4614 12.82C20.5249 12.8849 20.6004 12.9364 20.6836 12.9715C20.7667 13.0067 20.856 13.0248 20.9461 13.0248C21.0362 13.0248 21.1254 13.0067 21.2086 12.9715C21.2918 12.9364 21.3672 12.8849 21.4307 12.82L23.0348 11.1931C23.3362 10.883 23.52 10.4749 23.5538 10.0408C23.5876 9.60676 23.4692 9.1745 23.2196 8.82029C22.9698 8.46606 22.6049 8.21261 22.1889 8.10463C21.773 7.99665 21.3329 8.04104 20.9461 8.22999C20.5587 8.02938 20.1131 7.97648 19.6905 8.08091C19.2679 8.18536 18.8963 8.4402 18.6433 8.79908C18.3903 9.15795 18.2728 9.59702 18.3121 10.0364C18.3513 10.4757 18.5448 10.8862 18.8573 11.1931L20.4614 12.82ZM19.8198 9.53846C19.8612 9.49448 19.911 9.45947 19.9661 9.43555C20.0213 9.41163 20.0806 9.3993 20.1406 9.3993C20.2006 9.3993 20.2599 9.41163 20.3151 9.43555C20.3702 9.45947 20.42 9.49448 20.4614 9.53846C20.5249 9.60334 20.6004 9.65485 20.6836 9.68999C20.7667 9.72515 20.856 9.74324 20.9461 9.74324C21.0362 9.74324 21.1254 9.72515 21.2086 9.68999C21.2918 9.65485 21.3672 9.60334 21.4307 9.53846C21.4726 9.49534 21.5226 9.46111 21.5776 9.43772C21.6327 9.41436 21.6918 9.40233 21.7515 9.40233C21.8112 9.40233 21.8703 9.41436 21.9254 9.43772C21.9805 9.46111 22.0304 9.49534 22.0724 9.53846C22.1157 9.58048 22.1502 9.63098 22.1738 9.6869C22.1974 9.74283 22.2096 9.80302 22.2096 9.86384C22.2096 9.92467 22.1974 9.98486 22.1738 10.0408C22.1502 10.0967 22.1157 10.1472 22.0724 10.1892L20.9461 11.3523L19.8198 10.2308C19.7764 10.1887 19.7419 10.1383 19.7183 10.0823C19.6947 10.0264 19.6826 9.9662 19.6826 9.90539C19.6826 9.84456 19.6947 9.78437 19.7183 9.72843C19.7419 9.67251 19.7764 9.62201 19.8198 9.57999V9.53846Z" fill="#05051B"/>
<path d="M22.6523 13.6924C22.4712 13.6924 22.2976 13.7653 22.1696 13.8952C22.0416 14.025 21.9697 14.2011 21.9697 14.3847C21.9697 16.2955 20.1335 17.8462 17.8741 17.8462C15.6147 17.8462 13.7785 16.2955 13.7785 14.3847C13.7785 14.2011 13.7066 14.025 13.5786 13.8952C13.4506 13.7653 13.2769 13.6924 13.0959 13.6924C12.9149 13.6924 12.7412 13.7653 12.6132 13.8952C12.4852 14.025 12.4133 14.2011 12.4133 14.3847C12.4133 17.057 14.8638 19.2308 17.8741 19.2308C20.8844 19.2308 23.3349 17.057 23.3349 14.3847C23.3349 14.2011 23.263 14.025 23.135 13.8952C23.0069 13.7653 22.8333 13.6924 22.6523 13.6924Z" fill="#05051B"/>
<path d="M36.6814 15.8492H32.935L32.1676 18.0055H30.2684L33.8066 8.56836H35.8879L39.4003 18.0055H37.4489L36.6814 15.8492ZM33.5335 14.1721H36.0831L34.8083 10.6049L33.5335 14.1721Z" fill="#05051B"/>
<path d="M43.8058 16.3018C44.1788 16.3018 44.5342 16.2441 44.8724 16.1288C45.2106 16.0045 45.5056 15.8182 45.757 15.5697C46.0086 15.3213 46.208 15.0107 46.3555 14.638C46.5029 14.2564 46.5766 13.8083 46.5766 13.2936C46.5766 12.7789 46.5029 12.3353 46.3555 11.9626C46.208 11.581 46.0086 11.266 45.757 11.0175C45.5142 10.769 45.2238 10.5827 44.8856 10.4585C44.5474 10.3342 44.1917 10.2721 43.8189 10.2721H42.3748V16.3018H43.8058ZM40.5797 18.0055V8.56836H43.8839C44.5429 8.56836 45.1499 8.67485 45.7051 8.88782C46.2601 9.10077 46.7371 9.41136 47.136 9.81954C47.5435 10.2189 47.86 10.7114 48.0856 11.297C48.3198 11.8827 48.4367 12.5482 48.4367 13.2936C48.4367 14.039 48.3198 14.7045 48.0856 15.2902C47.86 15.8759 47.5435 16.3683 47.136 16.7677C46.7283 17.167 46.247 17.4731 45.692 17.6861C45.137 17.8991 44.5299 18.0055 43.8708 18.0055H40.5797Z" fill="#05051B"/>
<path d="M53.2191 12.8677C53.6701 12.8677 54.0213 12.7479 54.2727 12.5083C54.533 12.2598 54.663 11.9315 54.663 11.5233C54.663 11.0974 54.533 10.7646 54.2727 10.525C54.0213 10.2854 53.6701 10.1656 53.2191 10.1656H51.8012V12.8677H53.2191ZM51.7882 14.4516V18.0055H49.9931V8.56836H53.4402C53.8912 8.56836 54.3031 8.64379 54.6761 8.79464C55.049 8.93662 55.3698 9.14071 55.6386 9.40692C55.9075 9.66426 56.1113 9.97483 56.25 10.3387C56.3975 10.6936 56.4713 11.0841 56.4713 11.51C56.4713 11.9359 56.3975 12.3308 56.25 12.6946C56.1113 13.0584 55.9075 13.369 55.6386 13.6264C55.3698 13.8837 55.049 14.0878 54.6761 14.2387C54.3031 14.3806 53.8912 14.4516 53.4402 14.4516H51.7882Z" fill="#05051B"/>
<path d="M57.844 18.0055V8.56836H59.6391V16.2486H63.7498V18.0055H57.844Z" fill="#05051B"/>
<path d="M64.993 18.0056V11.4568H66.7232V18.0056H64.993ZM64.7849 9.31376C64.7849 9.00319 64.889 8.74141 65.0972 8.52844C65.3052 8.31547 65.5568 8.20898 65.8515 8.20898C66.1551 8.20898 66.4067 8.31547 66.6061 8.52844C66.8142 8.74141 66.9182 9.00319 66.9182 9.31376C66.9182 9.60661 66.8142 9.8595 66.6061 10.0725C66.4067 10.2854 66.1551 10.3919 65.8515 10.3919C65.5568 10.3919 65.3052 10.2854 65.0972 10.0725C64.889 9.8595 64.7849 9.60661 64.7849 9.31376Z" fill="#05051B"/>
<path d="M69.5114 15.8492C69.5288 16.1066 69.6328 16.3373 69.8236 16.5414C70.0143 16.7455 70.3006 16.8475 70.6821 16.8475C70.9684 16.8475 71.1808 16.7854 71.3195 16.6612C71.4583 16.5281 71.5277 16.3728 71.5277 16.1953C71.5277 16.0445 71.4756 15.9158 71.3716 15.8093C71.2676 15.6939 71.0898 15.6096 70.8383 15.5564L69.9927 15.3567C69.3683 15.2148 68.913 14.9707 68.6268 14.6247C68.3407 14.2697 68.1976 13.8615 68.1976 13.4001C68.1976 13.1072 68.2583 12.8322 68.3797 12.5748C68.5011 12.3086 68.6658 12.0823 68.874 11.896C69.0908 11.7008 69.3422 11.5455 69.6285 11.4301C69.9232 11.3148 70.2442 11.2571 70.591 11.2571C71.042 11.2571 71.4237 11.3236 71.7358 11.4567C72.048 11.581 72.2996 11.7407 72.4903 11.9359C72.6897 12.1311 72.8372 12.3397 72.9325 12.5615C73.0279 12.7745 73.0843 12.9697 73.1017 13.1472L71.6577 13.4799C71.6404 13.3823 71.6101 13.2847 71.5666 13.1871C71.532 13.0806 71.4713 12.983 71.3845 12.8943C71.2979 12.8056 71.1895 12.7346 71.0594 12.6813C70.938 12.6281 70.7862 12.6014 70.6041 12.6014C70.3785 12.6014 70.1835 12.6636 70.0188 12.7878C69.8625 12.912 69.7846 13.0673 69.7846 13.2537C69.7846 13.4134 69.8367 13.5421 69.9407 13.6397C70.0534 13.7373 70.1964 13.8038 70.3699 13.8393L71.2805 14.039C71.9136 14.1721 72.3862 14.4206 72.6985 14.7844C73.0193 15.1482 73.1797 15.5697 73.1797 16.0489C73.1797 16.3151 73.1278 16.5769 73.0236 16.8342C72.9282 17.0916 72.7765 17.3223 72.5683 17.5264C72.3603 17.7305 72.1001 17.8946 71.7879 18.0189C71.4756 18.1431 71.1113 18.2052 70.6952 18.2052C70.2095 18.2052 69.8018 18.1342 69.4724 17.9922C69.1428 17.8502 68.874 17.6772 68.6658 17.4731C68.4577 17.269 68.3016 17.0516 68.1976 16.8209C68.1022 16.5813 68.0458 16.3683 68.0284 16.182L69.5114 15.8492Z" fill="#05051B"/>
<path d="M76.705 11.4568H77.993V13.0274H76.705V15.7694C76.705 16.0533 76.7657 16.253 76.8871 16.3684C77.0173 16.4749 77.2081 16.5281 77.4595 16.5281C77.5637 16.5281 77.6677 16.5237 77.7717 16.5148C77.8759 16.5059 77.9495 16.4926 77.993 16.4749V17.939C77.9148 17.9745 77.7934 18.01 77.6287 18.0455C77.4726 18.081 77.2688 18.0987 77.0173 18.0987C76.3928 18.0987 75.8986 17.9213 75.5343 17.5663C75.1701 17.2114 74.988 16.7144 74.988 16.0755V13.0274H73.8302V11.4568H74.1555C74.4937 11.4568 74.7408 11.3592 74.8969 11.1639C75.0616 10.9598 75.144 10.7114 75.144 10.4185V9.50012H76.705V11.4568Z" fill="#05051B"/>
</g>
<defs>
<clipPath id="clip0">
<rect width="69" height="18" fill="white" transform="translate(9 4)"/>
</clipPath>
</defs>
</svg>
