<svg width="124" height="34" viewBox="0 0 124 34" fill="none" xmlns="http://www.w3.org/2000/svg">
<path d="M32.5187 23V16.0149H37.508C41.7343 16.0149 44.0822 13.1387 44.0822 9.7342C44.0822 6.30035 41.7636 3.42414 37.508 3.42414H28.3511V23H32.5187ZM36.921 12.3463H32.5187V7.09278H36.921C38.5646 7.09278 39.8266 8.09065 39.8266 9.7342C39.8266 11.3484 38.5646 12.3463 36.921 12.3463ZM52.7813 23.3522C54.9824 23.3522 57.213 22.6772 58.6217 21.3858L56.9488 18.9205C56.039 19.8009 54.3955 20.2999 53.1921 20.2999C50.7855 20.2999 49.3768 18.8618 49.1126 17.1302H59.649V16.2497C59.649 11.6419 56.8021 8.47219 52.5465 8.47219C48.2615 8.47219 45.2092 11.7886 45.2092 15.8975C45.2092 20.4466 48.4669 23.3522 52.7813 23.3522ZM56.0684 14.5475H49.0833C49.23 13.1387 50.2279 11.5245 52.5465 11.5245C55.0118 11.5245 55.951 13.1974 56.0684 14.5475ZM66.0686 23V13.6376C66.6849 12.7278 68.3285 12.0234 69.5612 12.0234C70.0014 12.0234 70.3242 12.0528 70.5884 12.1115V8.47219C68.8274 8.47219 67.0958 9.49941 66.0686 10.7321V8.82438H62.3413V23H66.0686ZM85.8602 23L80.8122 15.7214L85.5374 8.82438H81.3698L78.4643 13.168L75.5293 8.82438H71.3618L76.1163 15.7214L71.0683 23H75.2065L78.4643 18.2161L81.6927 23H85.8602ZM93.3656 23.3522C95.5668 23.3522 97.7973 22.6772 99.2061 21.3858L97.5332 18.9205C96.6233 19.8009 94.9798 20.2999 93.7765 20.2999C91.3698 20.2999 89.9611 18.8618 89.6969 17.1302H100.233V16.2497C100.233 11.6419 97.3864 8.47219 93.1308 8.47219C88.8458 8.47219 85.7935 11.7886 85.7935 15.8975C85.7935 20.4466 89.0513 23.3522 93.3656 23.3522ZM96.6527 14.5475H89.6676C89.8143 13.1387 90.8122 11.5245 93.1308 11.5245C95.5961 11.5245 96.5353 13.1974 96.6527 14.5475ZM106.653 23V3.42414H102.926V23H106.653ZM115.456 23.3522C119.388 23.3522 121.619 21.4445 121.619 18.8324C121.619 13.1093 113.196 14.8703 113.196 12.7865C113.196 11.9941 114.076 11.4071 115.426 11.4071C117.158 11.4071 118.772 12.1702 119.623 13.0507L121.12 10.4092C119.711 9.29396 117.804 8.47219 115.426 8.47219C111.67 8.47219 109.615 10.556 109.615 12.9333C109.615 18.5096 118.009 16.6019 118.009 18.9205C118.009 19.8009 117.246 20.4173 115.632 20.4173C113.871 20.4173 111.787 19.4488 110.73 18.4509L109.116 21.151C110.613 22.5304 112.99 23.3522 115.456 23.3522Z" fill="#34296B"/>
<g clip-path="url(#clip0)">
<path fill-rule="evenodd" clip-rule="evenodd" d="M9.1426 19.1893V28.8216H7.91206V30.1478H1.23054V28.8216H0V18.2118V7.60205H12.3206H13.3325V8.88072H15.4122V10.6825H17.0547V16.4101H15.4122V17.9107H13.3325V19.1893H9.1426Z" fill="black"/>
<path fill-rule="evenodd" clip-rule="evenodd" d="M17.9702 6.42387V3.71859H14.8125V3H3.72241V5.64716H14.8125V6.43444H16.8312V9.18728H19.8109V6.42387H17.9702Z" fill="black"/>
<path d="M9.1426 19.1893V28.8216H7.91206V30.1478H1.23054V28.8216H0V18.2118V7.60205H12.3206H13.3325V8.88072H15.4122V10.6825H17.0547V16.4101H15.4122V17.9107H13.3325V19.1893H9.1426Z" fill="#34296B"/>
<path d="M17.9702 6.42387V3.71859H14.8125V3H3.72241V5.64716H14.8125V6.43444H16.8312V9.18728H19.8109V6.42387H17.9702Z" fill="#34296B"/>
</g>
<defs>
<clipPath id="clip0">
<rect width="19.8107" height="27.1479" fill="white" transform="translate(0 3)"/>
</clipPath>
</defs>
</svg>
